<svg width="26" height="31" viewBox="0 0 26 31" fill="none" xmlns="http://www.w3.org/2000/svg">
<path d="M0.246693 15.3021C0.290691 7.00794 5.69894 0.905946 13.7027 0.948404C20.034 0.981989 25.1505 4.85588 25.1301 8.70243C25.1214 10.3252 24.0405 11.4014 22.2486 11.3919C17.8884 11.3688 18.1097 3.43612 12.3756 3.4057C9.15021 3.38859 6.20656 6.55852 6.17946 11.6672C6.13674 19.721 10.8273 25.0351 15.7251 25.0611C19.7868 25.0826 22.1319 22.1499 23.3976 19.9929C24.0592 19.1549 25.4914 19.403 25.3055 20.6641C24.8603 25.7706 21.1316 30.5592 13.9043 30.5209C6.25886 30.4803 0.205246 23.1155 0.246693 15.3021Z" fill="#FBFAF7"/>
</svg>
